<?xml version="1.0" encoding="utf-8"?>
<svg width="1861" height="512.002" viewBox="0 0 1861 512.002" fill="none" xmlns="http://www.w3.org/2000/svg">
  <g>
    <path d="M60.768 273.888Q60.768 293.184 40.608 293.184Q30.816 293.184 25.056 288.288Q19.296 283.392 19.296 273.888L19.296 134.784Q19.296 113.184 30.96 101.232Q42.624 89.28 63.648 89.28L125.568 89.28Q134.784 89.28 140.256 94.464Q145.728 99.648 145.728 108.576Q145.728 116.928 140.256 122.112Q134.784 127.296 125.568 127.296L79.488 127.296Q71.136 127.296 67.104 128.88Q63.072 130.464 61.92 135.792Q60.768 141.12 60.768 152.352Q60.768 160.128 60.192 169.2Q59.616 178.272 58.176 186.336Q69.408 177.408 91.008 177.408L111.168 177.408Q131.04 177.408 131.04 196.704Q131.04 216 111.168 216L88.704 216Q72.288 216 66.528 221.184Q60.768 226.368 60.768 241.632L60.768 273.888ZM211.392 293.184Q192.384 293.184 177.984 285.408Q163.584 277.632 155.664 263.52Q147.744 249.408 147.744 230.688L147.744 163.296Q147.744 143.712 168.48 143.712Q189.216 143.712 189.216 163.296L189.216 230.112Q189.216 243.648 194.976 251.136Q200.736 258.624 211.392 258.624Q222.048 258.624 227.808 251.136Q233.568 243.648 233.568 230.112L233.568 163.296Q233.568 143.712 254.304 143.712Q275.04 143.712 275.04 163.296L275.04 230.688Q275.04 249.408 267.12 263.52Q259.2 277.632 244.944 285.408Q230.688 293.184 211.392 293.184ZM325.152 293.184Q304.416 293.184 304.416 273.6L304.416 204.48Q304.416 176.832 322.128 160.704Q339.84 144.576 368.928 144.576Q398.016 144.576 415.728 160.704Q433.44 176.832 433.44 204.48L433.44 273.6Q433.44 293.184 412.704 293.184Q391.968 293.184 391.968 273.6L391.968 206.784Q391.968 193.248 385.92 186.192Q379.872 179.136 368.928 179.136Q357.984 179.136 351.936 186.192Q345.888 193.248 345.888 206.784L345.888 273.6Q345.888 293.184 325.152 293.184ZM529.632 293.184Q494.496 293.184 477.504 272.88Q460.512 252.576 460.512 219.168Q460.512 185.76 477.504 165.168Q494.496 144.576 529.632 144.576Q551.808 144.576 562.032 149.184Q572.256 153.792 572.256 165.6Q572.256 173.952 567.648 177.696Q563.04 181.44 555.264 181.44Q549.792 181.44 546.624 180.576Q543.456 179.712 539.856 178.992Q536.256 178.272 528.768 178.272Q518.688 178.272 512.784 184.32Q506.88 190.368 504.432 199.728Q501.984 209.088 501.984 219.168Q501.984 228.96 503.856 238.32Q505.728 247.68 511.488 253.584Q517.248 259.488 529.056 259.488Q540 259.488 545.184 257.904Q550.368 256.32 555.264 256.32Q563.04 256.32 567.648 259.056Q572.256 261.792 572.256 270.144Q572.256 281.952 562.032 287.568Q551.808 293.184 529.632 293.184ZM621.504 119.808Q610.848 119.808 603.648 112.896Q596.448 105.984 596.448 95.904Q596.448 85.248 603.648 78.336Q610.848 71.424 621.504 71.424Q632.448 71.424 639.504 78.336Q646.56 85.248 646.56 95.904Q646.56 105.984 639.504 112.896Q632.448 119.808 621.504 119.808ZM642.24 273.888Q642.24 293.184 622.08 293.184Q612.288 293.184 606.528 288.432Q600.768 283.68 600.768 273.888L600.768 164.16Q600.768 154.944 605.52 149.76Q610.272 144.576 621.504 144.576Q632.736 144.576 637.488 149.76Q642.24 154.944 642.24 164.16L642.24 273.888ZM736.416 293.184Q705.6 293.184 687.744 275.616Q669.888 258.048 669.888 218.88Q669.888 179.424 687.744 162Q705.6 144.576 736.416 144.576Q767.232 144.576 785.088 162Q802.944 179.424 802.944 218.88Q802.944 258.048 785.088 275.616Q767.232 293.184 736.416 293.184ZM736.416 258.624Q744.48 258.624 749.952 255.312Q755.424 252 758.448 243.36Q761.472 234.72 761.472 218.88Q761.472 203.04 758.448 194.4Q755.424 185.76 749.952 182.448Q744.48 179.136 736.416 179.136Q728.64 179.136 723.024 182.448Q717.408 185.76 714.384 194.4Q711.36 203.04 711.36 218.88Q711.36 234.72 714.384 243.36Q717.408 252 723.024 255.312Q728.64 258.624 736.416 258.624ZM851.328 293.184Q830.592 293.184 830.592 273.6L830.592 204.48Q830.592 176.832 848.304 160.704Q866.016 144.576 895.104 144.576Q924.192 144.576 941.904 160.704Q959.616 176.832 959.616 204.48L959.616 273.6Q959.616 293.184 938.88 293.184Q918.144 293.184 918.144 273.6L918.144 206.784Q918.144 193.248 912.096 186.192Q906.048 179.136 895.104 179.136Q884.16 179.136 878.112 186.192Q872.064 193.248 872.064 206.784L872.064 273.6Q872.064 293.184 851.328 293.184ZM1042.27 293.184Q1013.47 293.184 997.344 279.792Q981.216 266.4 981.216 245.088Q981.216 220.032 1002.38 208.8Q1023.55 197.568 1064.45 201.024Q1062.43 187.776 1056.1 183.024Q1049.76 178.272 1040.83 178.272Q1033.63 178.272 1028.88 178.992Q1024.13 179.712 1020.1 180.576Q1016.06 181.44 1010.3 181.44Q1002.53 181.44 997.92 178.704Q993.312 175.968 993.312 167.616Q993.312 155.808 1003.54 150.192Q1013.76 144.576 1035.94 144.576Q1071.07 144.576 1088.06 164.592Q1105.06 184.608 1105.06 218.016Q1105.06 256.608 1091.09 274.896Q1077.12 293.184 1042.27 293.184ZM1022.69 245.088Q1022.69 261.504 1044.86 261.504Q1052.06 261.504 1056.1 258.912Q1060.13 256.32 1062 248.544Q1063.87 240.768 1064.74 225.216Q1063.3 226.656 1060.99 227.232Q1058.69 227.808 1056.38 227.808Q1037.38 227.808 1030.03 231.408Q1022.69 235.008 1022.69 245.088ZM1181.09 293.184Q1126.94 293.184 1126.94 269.28Q1126.94 261.792 1130.98 257.472Q1135.01 253.152 1141.63 253.152Q1144.51 253.152 1147.25 253.872Q1149.98 254.592 1158.05 257.184Q1161.5 258.336 1167.26 259.488Q1173.02 260.64 1178.5 260.64Q1188.86 260.64 1193.18 258.048Q1197.5 255.456 1197.5 249.408Q1197.5 244.512 1195.2 241.776Q1192.9 239.04 1185.41 236.448Q1177.92 233.856 1162.08 229.248Q1147.68 225.216 1138.9 214.704Q1130.11 204.192 1130.11 188.64Q1130.11 166.752 1145.95 155.232Q1161.79 143.712 1189.44 143.712Q1210.18 143.712 1221.98 149.472Q1233.79 155.232 1233.79 166.176Q1233.79 173.088 1229.76 177.696Q1225.73 182.304 1218.82 182.304Q1215.94 182.304 1212.05 181.44Q1208.16 180.576 1202.69 179.136Q1198.66 177.696 1194.19 176.832Q1189.73 175.968 1184.83 175.968Q1171.01 175.968 1171.01 185.76Q1171.01 191.52 1176.48 195.408Q1181.95 199.296 1197.5 203.904Q1218.82 210.24 1228.9 220.752Q1238.98 231.264 1238.98 248.544Q1238.98 268.704 1223.57 280.944Q1208.16 293.184 1181.09 293.184Z" fill="#FFFFFF" transform="translate(610 66)" />
    <g>
      <g transform="translate(0 0)">
        <path d="M41.9851 180.194C41.9851 192.75 35.1819 199.028 21.5757 199.028C14.9669 199.028 9.71877 197.435 5.83126 194.249C1.94375 191.063 0 186.378 0 180.194L0 44.4159C0 30.3603 3.9361 19.4437 11.8083 11.6662C19.6805 3.88875 30.7113 1.52588e-05 44.9007 0L107.587 0C113.807 0 118.763 1.68668 122.456 5.06003C126.15 8.4334 127.996 13.0249 127.996 18.8346C127.996 24.2695 126.15 28.6736 122.456 32.0469C118.763 35.4203 113.807 37.107 107.587 37.107L60.9367 37.107C55.2998 37.107 51.1207 37.6224 48.3995 38.6531C45.6782 39.6838 43.9288 41.9327 43.1513 45.3998C42.3738 48.8669 41.9851 54.2549 41.9851 61.5638C41.9851 66.6239 41.7907 72.1056 41.402 78.009C41.0132 83.9124 40.3329 89.4878 39.361 94.7352C46.9417 88.9255 58.021 86.0207 72.5992 86.0207L93.0086 86.0207C106.421 86.0207 113.126 92.2989 113.126 104.855C113.126 117.412 106.421 123.69 93.0086 123.69L70.2667 123.69C59.1873 123.69 51.7038 125.377 47.8163 128.75C43.9288 132.123 41.9851 138.776 41.9851 148.709L41.9851 180.194Z" fill="#FF6600" fill-rule="evenodd" transform="translate(0 156.487)" />
        <path d="M30.9957 110.271C19.7073 116.535 10.6652 114.011 3.86953 102.697C0.568779 97.2019 -0.620289 92.0435 0.302326 87.2216C1.22494 82.3997 4.46624 78.4462 10.0262 75.3607L132.093 7.62141C144.729 0.609183 156.51 -1.56425 167.433 1.10155C178.357 3.7669 187.363 10.9986 194.45 22.7971L225.758 74.9197C228.865 80.0916 229.824 85.0545 228.636 89.8082C227.448 94.5619 224.242 98.3881 219.019 101.286C214.133 103.998 209.251 104.66 204.374 103.272C199.497 101.884 195.505 98.6042 192.398 93.4323L169.099 54.6435C166.284 49.9562 163.733 46.7387 161.447 44.9901C159.161 43.2415 156.266 42.9089 152.761 43.9922C149.255 45.0755 144.217 47.4405 137.646 51.0865C133.097 53.6113 128.072 56.1845 122.571 58.8065C117.069 61.428 111.717 63.6444 106.514 65.4541C115.523 68.8587 123.668 76.622 130.949 88.7434L141.143 105.714C147.841 116.866 145.547 125.574 134.258 131.838C122.97 138.102 113.976 135.658 107.278 124.507L95.9191 105.597C90.3854 96.3847 85.1315 91.0038 80.1571 89.4543C75.1828 87.9049 68.2308 89.6079 59.3011 94.5633L30.9957 110.271Z" fill="#FFEB52" fill-rule="evenodd" transform="translate(45.827 7.596)" />
        <path d="M10.5713 37.9423C-0.718872 31.6759 -2.96561 22.8844 3.83112 11.5673C7.13235 6.07007 11.1863 2.50006 15.9929 0.856328C20.7995 -0.786945 25.9832 -0.0657309 31.544 3.02088L153.629 70.7822C166.268 77.7967 174.117 86.5183 177.178 96.9477C180.239 107.377 178.225 118.492 171.137 130.295L139.824 182.434C136.717 187.608 132.724 190.889 127.846 192.277C122.968 193.665 117.917 192.91 112.693 190.01C107.807 187.298 104.769 183.564 103.581 178.809C102.392 174.054 103.352 169.089 106.459 163.916L129.762 125.114C132.578 120.425 134.202 116.693 134.634 113.914C135.067 111.137 133.919 108.559 131.189 106.182C128.46 103.805 123.81 100.793 117.238 97.1455C112.688 94.6204 107.856 91.723 102.743 88.4535C97.6288 85.1839 92.9554 81.8357 88.7226 78.4083C90.1597 87.6132 87.2371 98.2783 79.955 110.404L69.7599 127.379C63.0603 138.535 54.0654 140.979 42.7752 134.713C31.4851 128.446 29.1898 119.736 35.8894 108.58L47.2496 89.6645C52.7841 80.4492 55.0056 73.3831 53.9144 68.4661C52.8231 63.549 47.812 58.6119 38.881 53.6552L10.5713 37.9423Z" fill="#5BD291" fill-rule="evenodd" transform="translate(279.704 0)" />
        <path d="M86.0111 18.8345C86.0111 6.27817 92.8142 0 106.421 0C113.029 0 118.277 1.59286 122.165 4.77882C126.052 7.9648 127.996 12.6501 127.996 18.8345L127.996 154.612C127.996 168.668 124.06 179.585 116.188 187.362C108.316 195.14 97.2849 199.028 83.0955 199.028L20.4094 199.028C14.1894 199.028 9.23282 197.342 5.5397 193.968C1.84656 190.595 0 186.003 0 180.194C0 174.759 1.84656 170.355 5.5397 166.981C9.23285 163.608 14.1894 161.921 20.4094 161.921L67.0595 161.921C72.6964 161.921 76.8755 161.406 79.5967 160.375C82.318 159.345 84.0674 157.096 84.8448 153.628C85.6224 150.161 86.0111 144.773 86.0111 137.464C86.0111 132.404 86.2055 126.923 86.5942 121.019C86.983 115.116 87.6633 109.541 88.6352 104.293C81.0545 110.103 69.9752 113.008 55.397 113.008L34.9876 113.008C21.5757 113.008 14.8697 106.729 14.8697 94.173C14.8697 81.6167 21.5757 75.3383 34.9876 75.3383L57.7295 75.3383C68.8089 75.3383 76.2923 73.6517 80.1798 70.2784C84.0674 66.905 86.0111 60.252 86.0111 50.3194L86.0111 18.8345Z" fill="#0078D4" fill-rule="evenodd" transform="translate(384 156.487)" />
        <path d="M198.133 24.9469C209.422 18.6826 218.464 21.2072 225.259 32.5206C228.56 38.0156 229.749 43.1743 228.827 47.9962C227.904 52.8179 224.663 56.7716 219.103 59.857L97.0358 127.596C84.3996 134.609 72.6194 136.782 61.6955 134.117C50.7717 131.451 41.7663 124.219 34.6793 112.421L3.37071 60.298C0.264114 55.1262 -0.695099 50.1632 0.493073 45.4095C1.68124 40.6559 4.88687 36.8296 10.1099 33.9313C14.9959 31.2199 19.8776 30.558 24.7548 31.9459C29.6321 33.3338 33.624 36.6136 36.7306 41.7855L60.0301 80.5745C62.8454 85.2616 65.396 88.4793 67.6818 90.2277C69.9676 91.9761 72.8631 92.3087 76.3684 91.2254C79.8737 90.1424 84.9118 87.7775 91.4827 84.1311C96.0318 81.6067 101.057 79.0333 106.558 76.4116C112.06 73.7896 117.412 71.5737 122.615 69.7639C113.606 66.3591 105.461 58.5958 98.1796 46.4744L87.9861 29.5041C81.2875 18.3522 83.5824 9.64404 94.8709 3.37973C106.159 -2.88461 115.153 -0.440796 121.851 10.7109L133.21 29.6207C138.744 38.8331 143.998 44.214 148.972 45.7634C153.946 47.3128 160.898 45.6099 169.828 40.6545L198.133 24.9469Z" fill="#6D24FF" fill-rule="evenodd" transform="translate(237.037 369.187)" />
        <path d="M167.991 155.009C179.281 161.275 181.528 170.067 174.731 181.384C171.43 186.881 167.376 190.451 162.57 192.094C157.763 193.738 152.579 193.017 147.019 189.93L24.9332 122.169C12.295 115.154 4.44546 106.433 1.38467 96.0035C-1.67612 85.5745 0.337509 74.4586 7.42547 62.6565L38.7388 10.5172C41.8459 5.3436 45.8384 2.06277 50.7164 0.674438C55.5944 -0.713898 60.6453 0.0415344 65.8691 2.94101C70.7559 5.65332 73.7935 9.38718 74.9818 14.1424C76.1702 18.8976 75.2109 23.8621 72.1038 29.0357L48.8008 67.8372C45.9851 72.5258 44.3609 76.2587 43.9284 79.0365C43.4958 81.8143 44.6441 84.3918 47.3731 86.7688C50.1022 89.1458 54.7526 92.1581 61.3245 95.8056C65.8743 98.3308 70.7061 101.228 75.82 104.498C80.9339 107.767 85.6072 111.115 89.84 114.543C88.4029 105.338 91.3255 94.6729 98.6077 82.5474L108.803 65.5717C115.502 54.4164 124.497 51.9719 135.787 58.2382C147.077 64.5045 149.373 73.2155 142.673 84.371L131.313 103.287C125.779 112.502 123.557 119.568 124.648 124.485C125.739 129.402 130.751 134.339 139.682 139.296L167.991 155.009Z" fill="#D33048" fill-rule="evenodd" transform="translate(53.728 319.05)" />
      </g>
    </g>
  </g>
</svg>